<svg xmlns="http://www.w3.org/2000/svg" xmlns:xlink="http://www.w3.org/1999/xlink" width="500" zoomAndPan="magnify" viewBox="0 0 375 374.999991" height="500" preserveAspectRatio="xMidYMid meet" version="1.0"><defs><g/><clipPath id="id1"><path d="M 75 70 L 300 70 L 300 294.789062 L 75 294.789062 Z M 75 70 " clip-rule="nonzero"/></clipPath><clipPath id="id2"><path d="M 75 69.789062 L 300 69.789062 L 300 294.789062 L 75 294.789062 Z M 75 69.789062 " clip-rule="nonzero"/></clipPath></defs><g clip-path="url(#id1)"><path fill="#ffffff" d="M 299.777344 182.289062 C 299.777344 184.125 299.730469 185.964844 299.640625 187.796875 C 299.550781 189.632812 299.414062 191.464844 299.234375 193.292969 C 299.054688 195.121094 298.828125 196.945312 298.558594 198.761719 C 298.289062 200.582031 297.976562 202.390625 297.617188 204.191406 C 297.257812 205.996094 296.855469 207.789062 296.410156 209.570312 C 295.964844 211.351562 295.472656 213.121094 294.941406 214.882812 C 294.40625 216.640625 293.832031 218.382812 293.210938 220.113281 C 292.59375 221.84375 291.933594 223.558594 291.230469 225.253906 C 290.527344 226.953125 289.78125 228.632812 288.996094 230.292969 C 288.210938 231.953125 287.382812 233.59375 286.519531 235.214844 C 285.652344 236.835938 284.746094 238.433594 283.800781 240.011719 C 282.855469 241.585938 281.875 243.136719 280.855469 244.667969 C 279.832031 246.195312 278.773438 247.695312 277.679688 249.171875 C 276.585938 250.648438 275.457031 252.09375 274.289062 253.515625 C 273.125 254.9375 271.925781 256.328125 270.691406 257.6875 C 269.457031 259.050781 268.191406 260.378906 266.890625 261.679688 C 265.589844 262.980469 264.261719 264.246094 262.898438 265.480469 C 261.539062 266.714844 260.148438 267.914062 258.726562 269.078125 C 257.304688 270.246094 255.859375 271.375 254.382812 272.46875 C 252.90625 273.5625 251.40625 274.621094 249.875 275.644531 C 248.347656 276.664062 246.796875 277.644531 245.222656 278.589844 C 243.644531 279.535156 242.046875 280.441406 240.425781 281.308594 C 238.804688 282.171875 237.164062 283 235.503906 283.785156 C 233.84375 284.570312 232.164062 285.316406 230.464844 286.019531 C 228.769531 286.722656 227.054688 287.382812 225.324219 288 C 223.59375 288.621094 221.851562 289.195312 220.09375 289.730469 C 218.332031 290.261719 216.5625 290.753906 214.78125 291.199219 C 213 291.644531 211.207031 292.050781 209.402344 292.40625 C 207.601562 292.765625 205.792969 293.078125 203.972656 293.347656 C 202.15625 293.617188 200.332031 293.84375 198.503906 294.023438 C 196.675781 294.203125 194.84375 294.339844 193.007812 294.429688 C 191.171875 294.519531 189.335938 294.566406 187.5 294.566406 C 185.664062 294.566406 183.824219 294.519531 181.992188 294.429688 C 180.15625 294.339844 178.324219 294.203125 176.496094 294.023438 C 174.667969 293.84375 172.84375 293.617188 171.027344 293.347656 C 169.207031 293.078125 167.398438 292.765625 165.597656 292.40625 C 163.792969 292.050781 162 291.644531 160.21875 291.199219 C 158.4375 290.753906 156.667969 290.261719 154.90625 289.730469 C 153.148438 289.195312 151.40625 288.621094 149.675781 288 C 147.945312 287.382812 146.230469 286.722656 144.535156 286.019531 C 142.835938 285.316406 141.15625 284.570312 139.496094 283.785156 C 137.835938 283 136.195312 282.171875 134.574219 281.308594 C 132.953125 280.441406 131.355469 279.535156 129.777344 278.589844 C 128.203125 277.644531 126.652344 276.664062 125.125 275.644531 C 123.59375 274.621094 122.09375 273.5625 120.617188 272.46875 C 119.140625 271.375 117.695312 270.246094 116.273438 269.078125 C 114.851562 267.914062 113.460938 266.714844 112.101562 265.480469 C 110.738281 264.246094 109.410156 262.980469 108.109375 261.679688 C 106.808594 260.378906 105.542969 259.050781 104.308594 257.6875 C 103.074219 256.328125 101.875 254.9375 100.710938 253.515625 C 99.542969 252.09375 98.414062 250.648438 97.320312 249.171875 C 96.226562 247.695312 95.167969 246.195312 94.144531 244.667969 C 93.125 243.136719 92.144531 241.585938 91.199219 240.011719 C 90.253906 238.433594 89.347656 236.835938 88.480469 235.214844 C 87.617188 233.59375 86.789062 231.953125 86.003906 230.292969 C 85.21875 228.632812 84.472656 226.953125 83.769531 225.253906 C 83.066406 223.558594 82.40625 221.84375 81.789062 220.113281 C 81.167969 218.382812 80.59375 216.640625 80.058594 214.882812 C 79.527344 213.121094 79.035156 211.351562 78.589844 209.570312 C 78.144531 207.789062 77.742188 205.996094 77.382812 204.191406 C 77.023438 202.390625 76.710938 200.582031 76.441406 198.761719 C 76.171875 196.945312 75.945312 195.121094 75.765625 193.292969 C 75.585938 191.464844 75.449219 189.632812 75.359375 187.796875 C 75.269531 185.964844 75.222656 184.125 75.222656 182.289062 C 75.222656 180.453125 75.269531 178.617188 75.359375 176.78125 C 75.449219 174.945312 75.585938 173.113281 75.765625 171.285156 C 75.945312 169.457031 76.171875 167.632812 76.441406 165.816406 C 76.710938 163.996094 77.023438 162.1875 77.382812 160.386719 C 77.742188 158.582031 78.144531 156.789062 78.589844 155.007812 C 79.035156 153.226562 79.527344 151.457031 80.058594 149.699219 C 80.59375 147.9375 81.167969 146.195312 81.789062 144.464844 C 82.40625 142.734375 83.066406 141.019531 83.769531 139.324219 C 84.472656 137.625 85.21875 135.945312 86.003906 134.285156 C 86.789062 132.625 87.617188 130.984375 88.480469 129.363281 C 89.347656 127.742188 90.253906 126.144531 91.199219 124.566406 C 92.144531 122.992188 93.125 121.441406 94.144531 119.914062 C 95.167969 118.382812 96.226562 116.882812 97.320312 115.40625 C 98.414062 113.929688 99.542969 112.484375 100.710938 111.0625 C 101.875 109.640625 103.074219 108.25 104.308594 106.890625 C 105.542969 105.527344 106.808594 104.199219 108.109375 102.898438 C 109.410156 101.597656 110.738281 100.332031 112.101562 99.097656 C 113.460938 97.863281 114.851562 96.664062 116.273438 95.5 C 117.695312 94.332031 119.140625 93.203125 120.617188 92.109375 C 122.09375 91.015625 123.59375 89.957031 125.125 88.9375 C 126.652344 87.914062 128.203125 86.933594 129.777344 85.988281 C 131.355469 85.042969 132.953125 84.136719 134.574219 83.269531 C 136.195312 82.40625 137.835938 81.578125 139.496094 80.792969 C 141.15625 80.007812 142.835938 79.261719 144.535156 78.558594 C 146.230469 77.855469 147.945312 77.195312 149.675781 76.578125 C 151.40625 75.957031 153.148438 75.382812 154.90625 74.847656 C 156.667969 74.316406 158.4375 73.824219 160.21875 73.378906 C 162 72.933594 163.792969 72.53125 165.597656 72.171875 C 167.398438 71.8125 169.207031 71.5 171.027344 71.230469 C 172.84375 70.960938 174.667969 70.734375 176.496094 70.554688 C 178.324219 70.375 180.15625 70.238281 181.992188 70.148438 C 183.824219 70.058594 185.664062 70.015625 187.5 70.015625 C 189.335938 70.015625 191.171875 70.058594 193.007812 70.148438 C 194.84375 70.238281 196.675781 70.375 198.503906 70.554688 C 200.332031 70.734375 202.15625 70.960938 203.972656 71.230469 C 205.792969 71.5 207.601562 71.8125 209.402344 72.171875 C 211.207031 72.53125 213 72.933594 214.78125 73.378906 C 216.5625 73.824219 218.332031 74.316406 220.09375 74.847656 C 221.851562 75.382812 223.59375 75.957031 225.324219 76.578125 C 227.054688 77.195312 228.769531 77.855469 230.464844 78.558594 C 232.164062 79.261719 233.84375 80.007812 235.503906 80.792969 C 237.164062 81.578125 238.804688 82.40625 240.425781 83.269531 C 242.046875 84.136719 243.644531 85.042969 245.222656 85.988281 C 246.796875 86.933594 248.347656 87.914062 249.875 88.9375 C 251.40625 89.957031 252.90625 91.015625 254.382812 92.109375 C 255.859375 93.203125 257.304688 94.332031 258.726562 95.5 C 260.148438 96.664062 261.539062 97.863281 262.898438 99.097656 C 264.261719 100.332031 265.589844 101.597656 266.890625 102.898438 C 268.191406 104.199219 269.457031 105.527344 270.691406 106.890625 C 271.925781 108.25 273.125 109.640625 274.289062 111.0625 C 275.457031 112.484375 276.585938 113.929688 277.679688 115.40625 C 278.773438 116.882812 279.832031 118.382812 280.855469 119.914062 C 281.875 121.441406 282.855469 122.992188 283.800781 124.566406 C 284.746094 126.144531 285.652344 127.742188 286.519531 129.363281 C 287.382812 130.984375 288.210938 132.625 288.996094 134.285156 C 289.78125 135.945312 290.527344 137.625 291.230469 139.324219 C 291.933594 141.019531 292.59375 142.734375 293.210938 144.464844 C 293.832031 146.195312 294.40625 147.9375 294.941406 149.699219 C 295.472656 151.457031 295.964844 153.226562 296.410156 155.007812 C 296.855469 156.789062 297.257812 158.582031 297.617188 160.386719 C 297.976562 162.1875 298.289062 163.996094 298.558594 165.816406 C 298.828125 167.632812 299.054688 169.457031 299.234375 171.285156 C 299.414062 173.113281 299.550781 174.945312 299.640625 176.78125 C 299.730469 178.617188 299.777344 180.453125 299.777344 182.289062 Z M 299.777344 182.289062 " fill-opacity="1" fill-rule="nonzero"/></g><g clip-path="url(#id2)"><path fill="#5c473b" d="M 187.5 294.789062 C 157.457031 294.789062 129.207031 283.066406 107.964844 261.824219 C 86.722656 240.582031 75 212.335938 75 182.289062 C 75 152.246094 86.722656 123.996094 107.964844 102.753906 C 129.207031 81.511719 157.457031 69.789062 187.5 69.789062 C 217.542969 69.789062 245.792969 81.511719 267.035156 102.753906 C 288.277344 123.996094 300 152.246094 300 182.289062 C 300 212.335938 288.277344 240.582031 267.035156 261.824219 C 245.792969 283.066406 217.542969 294.789062 187.5 294.789062 Z M 187.5 76.527344 C 159.25 76.527344 132.710938 87.527344 112.722656 107.515625 C 92.738281 127.5 81.738281 154.039062 81.738281 182.289062 C 81.738281 210.539062 92.738281 237.078125 112.722656 257.066406 C 132.710938 277.050781 159.25 288.054688 187.5 288.054688 C 215.75 288.054688 242.289062 277.050781 262.277344 257.066406 C 282.261719 237.078125 293.261719 210.539062 293.261719 182.289062 C 293.261719 154.039062 282.261719 127.5 262.277344 107.515625 C 242.289062 87.527344 215.75 76.527344 187.5 76.527344 Z M 187.5 76.527344 " fill-opacity="1" fill-rule="nonzero"/></g><g fill="#5c473b" fill-opacity="1"><g transform="translate(149.053764, 233.354428)"><g><path d="M 3 -83.597656 C 9.601562 -90.296875 22.199219 -97.699219 31.199219 -98.398438 L 31.199219 0 L 45.699219 0 L 45.699219 -98.398438 C 54.699219 -97.699219 67.296875 -90.296875 73.898438 -83.597656 L 73.898438 -99.996094 L 3 -99.996094 Z M 3 -83.597656 "/></g></g></g></svg>